<?xml version="1.0" encoding="UTF-8" standalone="no"?>
<!-- Created with Inkscape (http://www.inkscape.org/) -->

<svg
   xmlns:dc="http://purl.org/dc/elements/1.1/"
   xmlns:cc="http://creativecommons.org/ns#"
   xmlns:rdf="http://www.w3.org/1999/02/22-rdf-syntax-ns#"
   xmlns:svg="http://www.w3.org/2000/svg"
   xmlns="http://www.w3.org/2000/svg"
   xmlns:sodipodi="http://sodipodi.sourceforge.net/DTD/sodipodi-0.dtd"
   xmlns:inkscape="http://www.inkscape.org/namespaces/inkscape"
   width="744.09448819"
   height="1052.3622047"
   id="svg4118"
   version="1.1"
   inkscape:version="0.48.3.1 r9886"
   sodipodi:docname="logo-mera400.svg">
  <defs
     id="defs4120" />
  <sodipodi:namedview
     id="base"
     pagecolor="#ffffff"
     bordercolor="#666666"
     borderopacity="1.0"
     inkscape:pageopacity="0.0"
     inkscape:pageshadow="2"
     inkscape:zoom="0.25"
     inkscape:cx="494.2134"
     inkscape:cy="1066.9474"
     inkscape:document-units="px"
     inkscape:current-layer="layer1"
     showgrid="false"
     showguides="true"
     inkscape:guide-bbox="true"
     inkscape:window-width="1680"
     inkscape:window-height="997"
     inkscape:window-x="0"
     inkscape:window-y="0"
     inkscape:window-maximized="1"
     inkscape:snap-global="false" />
  <metadata
     id="metadata4123">
    <rdf:RDF>
      <cc:Work
         rdf:about="">
        <dc:format>image/svg+xml</dc:format>
        <dc:type
           rdf:resource="http://purl.org/dc/dcmitype/StillImage" />
        <dc:title />
      </cc:Work>
    </rdf:RDF>
  </metadata>
  <g
     inkscape:label="Layer 1"
     inkscape:groupmode="layer"
     id="layer1"
     style="display:inline">
    <path
       style="opacity:1;fill:#000000;display:inline"
       d="m 403.92181,386.97003 c -4.90229,-0.63539 -7.21147,-4.5059 -7.73988,-7.19441 -0.78619,-4.00026 0.83829,-8.33509 3.18663,-11.96723 2.80615,-3.62689 6.8606,-6.52824 11.27978,-7.57009 4.37143,-1.03057 9.20355,-1.84406 12.18759,2.12533 2.25006,4.66607 -0.22062,9.59991 -3.91796,11.88718 -3.21129,1.9866 -6.33859,2.81012 -10.93857,2.63511 0.32693,3.03097 0.85736,3.93289 3.15099,4.08849 3.44292,0.23356 8.66499,-4.96712 11.04644,-2.16893 1.88839,2.21886 -3.06631,5.79938 -7.6206,7.21256 -2.10481,0.65311 -5.59284,1.60544 -10.63442,0.95199 z m 3.88457,-13.11414 c 7.00454,-2.13621 7.28435,-10.27889 4.53407,-9.25411 -3.65785,1.36298 -4.00989,4.43809 -4.53407,9.25411 z"
       id="path3049-9-4"
       inkscape:connector-curvature="0"
       sodipodi:nodetypes="ccsscsssssczcz" />
    <path
       style="opacity:1;fill:#000000"
       d="m 290.16563,382.06519 c -0.75679,-3.34592 1.71017,-4.39018 3.16973,-4.07271 1.41378,0.30753 1.55142,1.8961 2.59477,2.58435 1.10613,0.72965 2.13499,0.75907 2.62682,0.41108 3.30122,-2.39488 -1.1971,-5.1741 -3.12518,-7.42052 -3.39282,-3.49847 -2.78474,-8.69483 1.31931,-11.7239 2.77656,-1.68923 3.47392,-1.95043 7.75702,-2.21332 6.4503,-0.22003 8.97489,1.93831 9.3665,5.17032 0.0417,2.27697 -2.88568,3.71468 -4.71947,0.83624 -0.47208,-0.74099 -1.35906,-1.1017 -2.12867,-0.70825 -2.61538,1.33712 -0.66471,3.72737 3.65022,7.38235 2.63383,2.23101 2.26055,8.42781 -0.13205,10.99194 -3.10465,2.69285 -5.28429,3.71475 -11.99871,3.76202 -2.83148,0.0199 -7.62357,-1.65368 -8.38036,-4.9996 z"
       id="path3049"
       inkscape:connector-curvature="0"
       sodipodi:nodetypes="sscccccssscszss" />
    <path
       style="fill:#000000;fill-opacity:1;opacity:1"
       d="m 364.35559,425.76428 -28.50954,0 0,-13.00244 21.79645,-15.83604 16.54878,0 0,21.626 6.88666,0 0,7.21248 -6.88666,0 0,5.57111 -9.83564,0 z m 0,-7.21248 5e-5,-14.43557 -1.51452,0 -16.86974,12.25656 0,2.17901 z m -220.38586,1.60626 10.34367,-23.23226 18.65934,0 -2e-5,34.40959 -9.83259,0 2e-5,-26.54326 -1.24794,0 -12.94601,26.54326 -9.95293,0 -12.94602,-26.54326 -1.24794,0 c 0,0 -0.008,17.18609 0,26.54325 -3.38549,0.0169 -6.77095,0.008 -10.15645,0 -0.0203,-11.46986 0,-34.40959 0,-34.40959 l 18.9832,10e-6 m 46.88658,-10e-6 38.01184,0 0,7.86633 c 0,0 -18.3505,0 -27.5264,0 0,1.74779 0,3.47515 0,5.22293 8.62972,0 25.88913,0.0204 25.88913,0.0204 l 0,6.87936 -25.88913,0 0,6.55677 27.5264,0 0,7.86377 -38.01184,-2e-5 z m 44.56733,0 33.30261,10e-6 c 7.43596,0 10.10536,3.12374 10.10536,7.86633 l 0,3.41165 c 0,0 0,2.2266 0,3.79021 0,3.91498 -1.75779,5.45179 -4.83327,6.55781 3.02478,0.55329 4.83327,2.09877 4.83327,4.91982 l 0,7.86377 -10.39116,0 c 0,0 0.007,-4.17519 0,-6.08125 -0.13313,-1.44345 -0.43765,-2.41358 -1.96161,-2.41359 l -20.56976,0 c -0.004,2.83631 10e-6,8.49483 10e-6,8.49483 l -10.48545,1e-5 z m 33.82029,12.72628 c 0,-3.03422 -1.15558,-4.85994 -3.96327,-4.85994 -6.4572,0.0139 -19.37158,0 -19.37158,0 l 0,9.5036 c 0,0 13.81797,7.4e-4 19.81259,0 2.04588,0 3.52226,-1.82142 3.52226,-4.64366 z m 30.00157,-12.72627 c 4.90544,0.017 15.7999,0 15.7999,0 l 18.29591,34.40959 -11.58704,0 -2.96221,-5.57111 -23.29322,0 -2.96221,5.57111 -11.58703,0 z m 7.89995,6.93441 -8.189,15.40126 16.378,0 z"
       id="path3049-8"
       inkscape:connector-curvature="0"
       sodipodi:nodetypes="ccccccccccccccccccccccccccccccccccccccccccccccccsccccccccccccccccccccccccccccccc" />
    <path
       style="fill:#000000;fill-opacity:1;display:inline;opacity:1"
       d="m 396.9882,396.92468 c -7.04435,0 -12.25179,1.34287 -12.25179,9.76062 0,3.59355 0,12.81328 0,14.76042 0,8.295 4.78973,9.88855 12.22407,9.88855 5.44199,0 12.93825,0 18.60772,0 8.66319,0 12.28258,-2.40648 12.28258,-9.75596 0,-7.19647 0,-8.96998 0,-14.89301 0,-7.74177 -4.12046,-9.76062 -12.25179,-9.76062 -4.14062,0 -14.48879,0 -18.61079,0 z m 15.19679,8.49162 c 4.47175,0 5.52516,1.30615 5.52516,4.93655 0,3.49044 -4e-5,3.91613 -4e-5,7.55325 4e-5,3.38663 -0.8065,4.93598 -5.52516,4.93655 -2.21134,0 -8.76103,0 -11.79233,0 -5.00264,0 -5.51562,-1.89203 -5.51562,-4.9375 0,-1.63653 -0.002,-5.04207 -0.002,-7.54289 0,-3.47138 0.91195,-4.94274 5.5301,-4.94274 3.9834,-0.003 9.00352,-0.003 11.77989,-0.003 z"
       id="path3049-8-2-6-7"
       inkscape:connector-curvature="0"
       sodipodi:nodetypes="ccccccccccccccccccc" />
    <path
       style="fill:#000000;fill-opacity:1;display:inline;opacity:1"
       d="m 445.71782,396.92468 c -7.04435,0 -12.25179,1.34287 -12.25179,9.76062 0,3.59355 0,12.81328 0,14.76042 0,8.295 4.78973,9.88855 12.22407,9.88855 5.44199,0 12.93825,0 18.60772,0 8.66319,0 12.28258,-2.40648 12.28258,-9.75596 0,-7.19647 0,-8.96998 0,-14.89301 0,-7.74177 -4.12046,-9.76062 -12.25179,-9.76062 -4.14062,0 -14.48879,0 -18.61079,0 z m 15.19679,8.49162 c 4.47175,0 5.52516,1.30615 5.52516,4.93655 0,3.49044 -4e-5,3.91613 -4e-5,7.55325 4e-5,3.38663 -0.8065,4.93598 -5.52516,4.93655 -2.21134,0 -8.76103,0 -11.79233,0 -5.00264,0 -5.51562,-1.89203 -5.51562,-4.9375 0,-1.63653 -0.002,-5.04207 -0.002,-7.54289 0,-3.47138 0.91195,-4.94274 5.5301,-4.94274 3.9834,-0.003 9.00352,-0.003 11.77989,-0.003 z"
       id="path3049-8-2-6-7-3"
       inkscape:connector-curvature="0"
       sodipodi:nodetypes="ccccccccccccccccccc" />
    <path
       style="opacity:1;fill:#000000;display:inline"
       d="m 428.06681,385.99815 c -1.98615,-2.55851 1.26119,-12.5123 1.86501,-19.35473 -0.80947,-0.55744 -2.1675,0.53484 -3.38455,-0.38771 -0.6101,-0.46247 -0.48955,-1.25399 0.13417,-2.0865 0.33817,-0.45134 1.54221,-1.33509 2.60334,-1.9764 2.62616,-1.58713 9.36124,-3.86576 10.95703,-1.74829 1.17076,1.55348 1.24149,3.68641 1.12943,5.31358 2.28462,-3.57032 12.13042,-7.67836 14.62702,-4.3435 1.10089,1.47053 1.02574,1.63805 1.2462,3.9605 2.00967,-1.4992 6.45102,-5.13537 11.89715,-4.5594 1.53907,0.16272 3.60587,1.1901 4.14945,2.68983 1.09972,3.03405 -1.16824,10.00526 -1.25585,13.53771 -0.0452,1.82232 -0.25334,4.25329 1.50551,2.72795 0.77203,-0.66952 1.39359,0.42825 0.65291,2.54841 -1.0894,3.11853 -7.79512,6.26729 -13.13311,4.20894 -2.67585,-1.0318 0.78908,-9.19291 1.11381,-17.44714 0.0539,-1.36831 -2.69377,-1.67348 -4.60852,-0.63848 -2.30806,8.70458 -1.28048,14.20969 -2.70965,16.31878 -1.70761,2.51991 -9.44629,2.76228 -10.58824,1.4103 -2.38465,-2.82326 2.68668,-15.036 1.5782,-16.97887 -1.15239,-2.01978 -2.93779,-1.4881 -4.36072,-0.83797 -1.92343,9.29608 -1.17356,14.59625 -2.7541,16.3667 -2.18363,2.44592 -9.97708,2.16175 -10.66445,1.27629 z"
       id="path3049-9"
       inkscape:connector-curvature="0"
       sodipodi:nodetypes="ssssscscssssssscssscssss" />
    <path
       style="opacity:1;fill:#000000;display:inline"
       d="m 314.90882,385.79928 c 1.68765,-3.03098 7.25297,-3.60036 8.69936,0.56062 0.40384,0.98019 0.0774,1.93185 -0.0321,2.69041 -0.25857,1.79072 2.05695,2.48417 2.67795,1.50588 2.95142,-4.64941 -2.00266,-14.69359 -5.51611,-21.57717 -0.51855,-0.6267 -1.55171,2.21764 -3.89722,2.33316 -1.93664,0.0953 -2.68196,-3.38676 -1.01946,-5.14696 2.11447,-2.23874 5.16008,-4.04628 6.65748,-5.02725 2.07232,-1.3576 5.11578,-2.16827 6.70381,-1.18482 3.34385,4.43453 4.64826,11.17735 6.60296,16.3159 0.62596,0.95147 1.76526,2.87597 2.52408,-2.00828 0.59472,-3.82788 0.46178,-6.35802 -0.31525,-7.1736 -1.08017,-1.13378 -2.06481,-4.06242 -0.40167,-5.92071 2.02574,-2.26341 5.53718,-1.10287 6.75421,0.32311 2.35088,2.75445 0.22027,11.55727 -0.95684,16.08153 -1.9042,4.28161 -0.68908,3.87474 -6.30587,11.74711 -1.71584,1.65939 -3.99531,4.79572 -9.06247,6.02661 -2.87892,0.69933 -6.57865,0.7273 -7.64117,0.45194 -5.29674,-1.37266 -7.06072,-6.42439 -5.47158,-9.99748 z"
       id="path3049-9-6"
       inkscape:connector-curvature="0"
       sodipodi:nodetypes="scsscsssccssssccsscs" />
    <path
       style="opacity:1;fill:#000000;display:inline"
       d="m 347.46581,382.02501 c -0.75679,-3.34592 1.71017,-4.39018 3.16973,-4.07271 1.41378,0.30753 1.55142,1.8961 2.59477,2.58435 1.10613,0.72965 2.13499,0.75907 2.62682,0.41108 3.30122,-2.39488 -1.1971,-5.1741 -3.12518,-7.42052 -3.39282,-3.49847 -2.78474,-8.69483 1.31931,-11.7239 2.77656,-1.68923 3.47392,-1.95043 7.75702,-2.21332 6.4503,-0.22003 8.97489,1.93831 9.3665,5.17032 0.0417,2.27697 -2.88568,3.71468 -4.71947,0.83624 -0.47208,-0.74099 -1.35906,-1.1017 -2.12867,-0.70825 -2.61538,1.33712 -0.66471,3.72737 3.65022,7.38235 2.63383,2.23101 2.26055,8.42781 -0.13205,10.99194 -3.10465,2.69285 -5.28429,3.71475 -11.99871,3.76202 -2.83148,0.0199 -7.62357,-1.65368 -8.38036,-4.9996 z"
       id="path3049-7"
       inkscape:connector-curvature="0"
       sodipodi:nodetypes="sscccccssscszss" />
    <path
       style="opacity:1;fill:#000000;display:inline"
       d="m 376.75586,385.3834 c -2.02688,-2.8503 -0.90899,-6.28979 0.23683,-12.28168 0.5853,-3.06079 1.1305,-5.73085 0.48935,-7.22937 -0.25757,-0.60199 -3.13139,-0.14314 -3.25565,-0.50267 -0.30396,-0.87942 -0.35996,-3.10456 1.09751,-3.99907 1.67071,-1.02539 3.64905,0.45968 4.91004,-5.04195 0.6943,-3.02914 5.92895,-3.26094 9.81495,-3.50098 3.18514,0.52557 -2.98418,8.11323 1.90266,7.92183 2.86534,-0.3925 2.7617,0.70126 2.55858,2.286 -0.27406,2.13834 -0.52307,2.04457 -5.07189,2.45393 -1.01282,5.91365 -1.31268,6.94742 -1.65309,10.99184 -0.15749,1.87186 0.79017,3.2102 4.54214,1.3406 1.05888,-0.52763 1.31418,3.79762 -0.12453,4.73764 -7.79036,5.0902 -13.42011,5.67419 -15.44695,2.82388 z"
       id="path3049-9-7"
       inkscape:connector-curvature="0"
       sodipodi:nodetypes="cssccscssszsccc" />
  </g>
</svg>
