<?xml version="1.0" encoding="UTF-8" standalone="no"?>
<!-- Created with Inkscape (http://www.inkscape.org/) -->

<svg
   version="1.0"
   width="96"
   height="96"
   id="svg2408"
   sodipodi:docname="cycle.svg"
   inkscape:version="1.1 (c68e22c387, 2021-05-23)"
   xmlns:inkscape="http://www.inkscape.org/namespaces/inkscape"
   xmlns:sodipodi="http://sodipodi.sourceforge.net/DTD/sodipodi-0.dtd"
   xmlns:xlink="http://www.w3.org/1999/xlink"
   xmlns="http://www.w3.org/2000/svg"
   xmlns:svg="http://www.w3.org/2000/svg"
   xmlns:rdf="http://www.w3.org/1999/02/22-rdf-syntax-ns#"
   xmlns:cc="http://creativecommons.org/ns#"
   xmlns:dc="http://purl.org/dc/elements/1.1/">
  <sodipodi:namedview
     id="namedview35818"
     pagecolor="#ffffff"
     bordercolor="#999999"
     borderopacity="1"
     inkscape:pageshadow="0"
     inkscape:pageopacity="0"
     inkscape:pagecheckerboard="0"
     showgrid="false"
     inkscape:zoom="3.9375"
     inkscape:cx="24.126984"
     inkscape:cy="51.555556"
     inkscape:window-width="1920"
     inkscape:window-height="1013"
     inkscape:window-x="0"
     inkscape:window-y="0"
     inkscape:window-maximized="1"
     inkscape:current-layer="svg2408" />
  <defs
     id="defs2410">
    <linearGradient
       id="linearGradient3637">
      <stop
         id="stop3639"
         style="stop-color:#f0f0f0;stop-opacity:1"
         offset="0" />
      <stop
         id="stop3641"
         style="stop-color:#ff6600;stop-opacity:1"
         offset="1" />
    </linearGradient>
    <linearGradient
       x1="45.447727"
       y1="92.539597"
       x2="45.447727"
       y2="7.0165396"
       id="ButtonShadow"
       gradientUnits="userSpaceOnUse"
       gradientTransform="scale(1.0058652,0.994169)">
      <stop
         id="stop3750"
         style="stop-color:#000000;stop-opacity:1"
         offset="0" />
      <stop
         id="stop3752"
         style="stop-color:#000000;stop-opacity:0.58823532"
         offset="1" />
    </linearGradient>
    <linearGradient
       id="linearGradient3737">
      <stop
         id="stop3739"
         style="stop-color:#ffffff;stop-opacity:1"
         offset="0" />
      <stop
         id="stop3741"
         style="stop-color:#ffffff;stop-opacity:0"
         offset="1" />
    </linearGradient>
    <linearGradient
       id="linearGradient3700">
      <stop
         id="stop3702"
         style="stop-color:#2276c5;stop-opacity:1"
         offset="0" />
      <stop
         id="stop3704"
         style="stop-color:#68baf4;stop-opacity:1"
         offset="1" />
    </linearGradient>
    <filter
       color-interpolation-filters="sRGB"
       id="filter3174"
       x="-0.047720931"
       y="-0.048282354"
       width="1.0954419"
       height="1.0965647">
      <feGaussianBlur
         id="feGaussianBlur3176"
         stdDeviation="1.71" />
    </filter>
    <linearGradient
       x1="36.357143"
       y1="6"
       x2="36.357143"
       y2="63.893143"
       id="linearGradient3188"
       xlink:href="#linearGradient3737"
       gradientUnits="userSpaceOnUse" />
    <filter
       x="-0.19578789"
       y="-0.19578789"
       width="1.3915758"
       height="1.3915758"
       color-interpolation-filters="sRGB"
       id="filter3794">
      <feGaussianBlur
         id="feGaussianBlur3796"
         stdDeviation="5.28" />
    </filter>
    <linearGradient
       x1="48"
       y1="20.220806"
       x2="48"
       y2="138.66119"
       id="linearGradient3613"
       xlink:href="#linearGradient3737"
       gradientUnits="userSpaceOnUse" />
    <radialGradient
       cx="48"
       cy="90.171875"
       r="42"
       fx="48"
       fy="90.171875"
       id="radialGradient3619"
       xlink:href="#linearGradient3737"
       gradientUnits="userSpaceOnUse"
       gradientTransform="matrix(1.1573129,0,0,0.99590774,-7.5510206,0.19713193)" />
    <clipPath
       id="clipPath3613">
      <rect
         width="84"
         height="84"
         rx="6"
         ry="6"
         x="6"
         y="6"
         id="rect3615"
         style="fill:#ffffff;fill-opacity:1;fill-rule:nonzero;stroke:none" />
    </clipPath>
    <linearGradient
       x1="48"
       y1="90"
       x2="48"
       y2="5.9877172"
       id="linearGradient2843"
       xlink:href="#linearGradient3700"
       gradientUnits="userSpaceOnUse"
       gradientTransform="translate(0,100)" />
    <clipPath
       id="clipPath3625">
      <path
         d="M 0,0 0,96 96,96 96,0 0,0 z m 12,6 72,0 c 3.324,0 6,2.676 6,6 l 0,72 c 0,3.324 -2.676,6 -6,6 L 12,90 C 8.676,90 6,87.324 6,84 L 6,12 C 6,8.676 8.676,6 12,6 z"
         inkscape:connector-curvature="0"
         id="path3627"
         style="fill:#ffffff;fill-opacity:1;stroke:none" />
    </clipPath>
    <linearGradient
       x1="44.512066"
       y1="6"
       x2="44.512066"
       y2="90.015434"
       id="linearGradient3643"
       xlink:href="#linearGradient3637"
       gradientUnits="userSpaceOnUse" />
    <clipPath
       id="clipPath3649">
      <rect
         width="76"
         height="76"
         rx="4"
         ry="4"
         x="10"
         y="10"
         id="rect3651"
         style="fill:#ffffff;fill-opacity:1;fill-rule:nonzero;stroke:none" />
    </clipPath>
    <filter
       color-interpolation-filters="sRGB"
       id="filter3657"
       x="-0.035076923"
       y="-0.035076923"
       width="1.0701538"
       height="1.0701538">
      <feGaussianBlur
         id="feGaussianBlur3659"
         stdDeviation="1.14" />
    </filter>
    <linearGradient
       x1="45.447727"
       y1="92.539597"
       x2="45.447727"
       y2="7.0165396"
       id="ButtonShadow-0"
       gradientUnits="userSpaceOnUse"
       gradientTransform="matrix(1.0058652,0,0,0.994169,100,0)">
      <stop
         id="stop3750-8"
         style="stop-color:#000000;stop-opacity:1"
         offset="0" />
      <stop
         id="stop3752-5"
         style="stop-color:#000000;stop-opacity:0.58823532"
         offset="1" />
    </linearGradient>
    <linearGradient
       x1="32.251034"
       y1="6.1317081"
       x2="32.251034"
       y2="90.238609"
       id="linearGradient3780"
       xlink:href="#ButtonShadow-0"
       gradientUnits="userSpaceOnUse"
       gradientTransform="matrix(1.0238095,0,0,-1.0119048,-1.1428571,98.071429)" />
    <linearGradient
       x1="32.251034"
       y1="6.1317081"
       x2="32.251034"
       y2="90.238609"
       id="linearGradient3772"
       xlink:href="#ButtonShadow-0"
       gradientUnits="userSpaceOnUse"
       gradientTransform="matrix(1.0238095,0,0,-1.0119048,-1.1428571,98.071429)" />
    <linearGradient
       x1="32.251034"
       y1="6.1317081"
       x2="32.251034"
       y2="90.238609"
       id="linearGradient3725"
       xlink:href="#ButtonShadow-0"
       gradientUnits="userSpaceOnUse"
       gradientTransform="matrix(1.0238095,0,0,-1.0119048,-1.1428571,98.071429)" />
    <linearGradient
       x1="32.251034"
       y1="6.1317081"
       x2="32.251034"
       y2="90.238609"
       id="linearGradient3721"
       xlink:href="#ButtonShadow-0"
       gradientUnits="userSpaceOnUse"
       gradientTransform="matrix(1,0,0,-1,0,97)" />
    <linearGradient
       x1="32.251034"
       y1="6.1317081"
       x2="32.251034"
       y2="90.238609"
       id="linearGradient3199"
       xlink:href="#ButtonShadow-0"
       gradientUnits="userSpaceOnUse"
       gradientTransform="matrix(1.0238095,0,0,-1.0119048,-1.1428571,98.071429)" />
    <linearGradient
       x1="36.357143"
       y1="6"
       x2="36.357143"
       y2="63.893143"
       id="linearGradient3188-8"
       xlink:href="#linearGradient3737-3"
       gradientUnits="userSpaceOnUse" />
    <linearGradient
       id="linearGradient3737-3">
      <stop
         id="stop3739-6"
         style="stop-color:#ffffff;stop-opacity:1"
         offset="0" />
      <stop
         id="stop3741-1"
         style="stop-color:#ffffff;stop-opacity:0"
         offset="1" />
    </linearGradient>
    <radialGradient
       cx="48"
       cy="90.171875"
       r="42"
       fx="48"
       fy="90.171875"
       id="radialGradient3619-3"
       xlink:href="#linearGradient3737-3"
       gradientUnits="userSpaceOnUse"
       gradientTransform="matrix(1.1573129,0,0,0.99590774,-7.551021,0.1971319)" />
    <linearGradient
       x1="104"
       y1="8"
       x2="120"
       y2="8"
       id="linearGradient3905"
       xlink:href="#linearGradient3637"
       gradientUnits="userSpaceOnUse"
       gradientTransform="translate(-104,104)" />
    <linearGradient
       x1="104"
       y1="8"
       x2="120"
       y2="8"
       id="linearGradient3913"
       xlink:href="#linearGradient3183-0"
       gradientUnits="userSpaceOnUse"
       gradientTransform="translate(-144,104)" />
    <linearGradient
       id="linearGradient3183-0">
      <stop
         id="stop3185-9"
         style="stop-color:#c80000;stop-opacity:1"
         offset="0" />
      <stop
         id="stop3187-6"
         style="stop-color:#f3604d;stop-opacity:1"
         offset="1" />
    </linearGradient>
    <linearGradient
       x1="11"
       y1="2"
       x2="10.917386"
       y2="19.380394"
       id="linearGradient3026"
       xlink:href="#linearGradient3637"
       gradientUnits="userSpaceOnUse"
       gradientTransform="matrix(-4.202048,0,0,4.202048,95.888217,-0.00108386)" />
  </defs>
  <metadata
     id="metadata2413">
    <rdf:RDF>
      <cc:Work
         rdf:about="">
        <dc:format>image/svg+xml</dc:format>
        <dc:type
           rdf:resource="http://purl.org/dc/dcmitype/StillImage" />
      </cc:Work>
    </rdf:RDF>
  </metadata>
  <g
     id="layer2"
     style="display:none">
    <rect
       width="86"
       height="85"
       rx="6"
       ry="6"
       x="5"
       y="7"
       clip-path="url(#clipPath3625)"
       id="rect3745"
       style="opacity:0.9;fill:url(#ButtonShadow);fill-opacity:1;fill-rule:nonzero;stroke:none;filter:url(#filter3174)" />
  </g>
  <g
     id="layer1"
     style="display:none">
    <rect
       width="84"
       height="84"
       rx="6"
       ry="6"
       x="6"
       y="6"
       id="rect2419"
       style="opacity:0.8;fill:#000000;fill-opacity:1;fill-rule:nonzero;stroke:none" />
    <path
       d="m 14,10 c -2.216,0 -4,1.784 -4,4 l 0,68 c 0,2.216 1.784,4 4,4 l 68,0 c 2.216,0 4,-1.784 4,-4 l 0,-68 c 0,-2.216 -1.784,-4 -4,-4 l -68,0 z m 0,3.0625 68,0 c 0.578769,0 0.9375,0.358731 0.9375,0.9375 l 0,68 c 0,0.578769 -0.358731,0.9375 -0.9375,0.9375 l -68,0 c -0.578769,0 -0.9375,-0.358731 -0.9375,-0.9375 l 0,-68 c 0,-0.578769 0.358731,-0.9375 0.9375,-0.9375 z"
       inkscape:connector-curvature="0"
       id="rect3726"
       style="opacity:0.07999998;fill:#000000;fill-opacity:1;fill-rule:nonzero;stroke:none" />
    <path
       d="M 12,6 C 8.676,6 6,8.676 6,12 l 0,72 c 0,3.324 2.676,6 6,6 l 72,0 c 3.324,0 6,-2.676 6,-6 L 90,12 C 90,8.676 87.324,6 84,6 L 12,6 z m 2,4 68,0 c 2.216,0 4,1.784 4,4 l 0,68 c 0,2.216 -1.784,4 -4,4 l -68,0 c -2.216,0 -4,-1.784 -4,-4 l 0,-68 c 0,-2.216 1.784,-4 4,-4 z"
       inkscape:connector-curvature="0"
       id="rect3629"
       style="fill:url(#linearGradient3643);fill-opacity:1;fill-rule:nonzero;stroke:none" />
    <path
       d="M 12,6 C 8.676,6 6,8.676 6,12 l 0,2 0,68 0,2 c 0,0.334721 0.04135,0.6507 0.09375,0.96875 0.0487,0.295596 0.09704,0.596915 0.1875,0.875 0.00988,0.03038 0.020892,0.0636 0.03125,0.09375 0.098865,0.287771 0.2348802,0.547452 0.375,0.8125 0.1445918,0.273507 0.3156161,0.535615 0.5,0.78125 0.1843839,0.245635 0.3737765,0.473472 0.59375,0.6875 0.439947,0.428056 0.94291,0.814526 1.5,1.09375 0.278545,0.139612 0.5734731,0.246947 0.875,0.34375 -0.2562018,-0.100222 -0.4867109,-0.236272 -0.71875,-0.375 -0.00741,-0.0044 -0.023866,0.0045 -0.03125,0 -0.031933,-0.0193 -0.062293,-0.04251 -0.09375,-0.0625 -0.120395,-0.0767 -0.2310226,-0.163513 -0.34375,-0.25 -0.1061728,-0.0808 -0.2132809,-0.161112 -0.3125,-0.25 C 8.4783201,88.557317 8.3087904,88.373362 8.15625,88.1875 8.0486711,88.057245 7.9378561,87.922215 7.84375,87.78125 7.818661,87.74287 7.805304,87.69538 7.78125,87.65625 7.716487,87.553218 7.6510225,87.451733 7.59375,87.34375 7.4927417,87.149044 7.3880752,86.928049 7.3125,86.71875 7.30454,86.69694 7.288911,86.6782 7.28125,86.65625 7.2494249,86.5643 7.2454455,86.469419 7.21875,86.375 7.1884177,86.268382 7.1483606,86.171969 7.125,86.0625 7.0521214,85.720988 7,85.364295 7,85 L 7,83 7,15 7,13 C 7,10.218152 9.2181517,8 12,8 l 2,0 68,0 2,0 c 2.781848,0 5,2.218152 5,5 l 0,2 0,68 0,2 c 0,0.364295 -0.05212,0.720988 -0.125,1.0625 -0.04415,0.206893 -0.08838,0.397658 -0.15625,0.59375 -0.0077,0.02195 -0.0233,0.04069 -0.03125,0.0625 -0.06274,0.173739 -0.138383,0.367449 -0.21875,0.53125 -0.04158,0.0828 -0.07904,0.169954 -0.125,0.25 -0.0546,0.09721 -0.126774,0.18835 -0.1875,0.28125 -0.09411,0.140965 -0.204921,0.275995 -0.3125,0.40625 -0.143174,0.17445 -0.303141,0.346998 -0.46875,0.5 -0.01117,0.0102 -0.01998,0.02115 -0.03125,0.03125 -0.138386,0.125556 -0.285091,0.234436 -0.4375,0.34375 -0.102571,0.07315 -0.204318,0.153364 -0.3125,0.21875 -0.0074,0.0045 -0.02384,-0.0044 -0.03125,0 -0.232039,0.138728 -0.462548,0.274778 -0.71875,0.375 0.301527,-0.0968 0.596455,-0.204138 0.875,-0.34375 0.55709,-0.279224 1.060053,-0.665694 1.5,-1.09375 0.219973,-0.214028 0.409366,-0.441865 0.59375,-0.6875 0.184384,-0.245635 0.355408,-0.507743 0.5,-0.78125 0.14012,-0.265048 0.276135,-0.524729 0.375,-0.8125 0.01041,-0.03078 0.02133,-0.06274 0.03125,-0.09375 0.09046,-0.278085 0.1388,-0.579404 0.1875,-0.875 C 89.95865,84.6507 90,84.334721 90,84 l 0,-2 0,-68 0,-2 C 90,8.676 87.324,6 84,6 L 12,6 z"
       inkscape:connector-curvature="0"
       id="rect3728"
       style="fill:url(#linearGradient3188);fill-opacity:1;fill-rule:nonzero;stroke:none" />
    <path
       d="M 12,90 C 8.676,90 6,87.324 6,84 L 6,82 6,14 6,12 c 0,-0.334721 0.04135,-0.6507 0.09375,-0.96875 0.0487,-0.295596 0.09704,-0.596915 0.1875,-0.875 C 6.29113,10.12587 6.302142,10.09265 6.3125,10.0625 6.411365,9.774729 6.5473802,9.515048 6.6875,9.25 6.8320918,8.976493 7.0031161,8.714385 7.1875,8.46875 7.3718839,8.223115 7.5612765,7.995278 7.78125,7.78125 8.221197,7.353194 8.72416,6.966724 9.28125,6.6875 9.559795,6.547888 9.8547231,6.440553 10.15625,6.34375 9.9000482,6.443972 9.6695391,6.580022 9.4375,6.71875 c -0.00741,0.0044 -0.023866,-0.0045 -0.03125,0 -0.031933,0.0193 -0.062293,0.04251 -0.09375,0.0625 -0.120395,0.0767 -0.2310226,0.163513 -0.34375,0.25 -0.1061728,0.0808 -0.2132809,0.161112 -0.3125,0.25 C 8.4783201,7.442683 8.3087904,7.626638 8.15625,7.8125 8.0486711,7.942755 7.9378561,8.077785 7.84375,8.21875 7.818661,8.25713 7.805304,8.30462 7.78125,8.34375 7.716487,8.446782 7.6510225,8.548267 7.59375,8.65625 7.4927417,8.850956 7.3880752,9.071951 7.3125,9.28125 7.30454,9.30306 7.288911,9.3218 7.28125,9.34375 7.2494249,9.4357 7.2454455,9.530581 7.21875,9.625 7.1884177,9.731618 7.1483606,9.828031 7.125,9.9375 7.0521214,10.279012 7,10.635705 7,11 l 0,2 0,68 0,2 c 0,2.781848 2.2181517,5 5,5 l 2,0 68,0 2,0 c 2.781848,0 5,-2.218152 5,-5 l 0,-2 0,-68 0,-2 C 89,10.635705 88.94788,10.279012 88.875,9.9375 88.83085,9.730607 88.78662,9.539842 88.71875,9.34375 88.71105,9.3218 88.69545,9.30306 88.6875,9.28125 88.62476,9.107511 88.549117,8.913801 88.46875,8.75 88.42717,8.6672 88.38971,8.580046 88.34375,8.5 88.28915,8.40279 88.216976,8.31165 88.15625,8.21875 88.06214,8.077785 87.951329,7.942755 87.84375,7.8125 87.700576,7.63805 87.540609,7.465502 87.375,7.3125 87.36383,7.3023 87.35502,7.29135 87.34375,7.28125 87.205364,7.155694 87.058659,7.046814 86.90625,6.9375 86.803679,6.86435 86.701932,6.784136 86.59375,6.71875 c -0.0074,-0.0045 -0.02384,0.0044 -0.03125,0 -0.232039,-0.138728 -0.462548,-0.274778 -0.71875,-0.375 0.301527,0.0968 0.596455,0.204138 0.875,0.34375 0.55709,0.279224 1.060053,0.665694 1.5,1.09375 0.219973,0.214028 0.409366,0.441865 0.59375,0.6875 0.184384,0.245635 0.355408,0.507743 0.5,0.78125 0.14012,0.265048 0.276135,0.524729 0.375,0.8125 0.01041,0.03078 0.02133,0.06274 0.03125,0.09375 0.09046,0.278085 0.1388,0.579404 0.1875,0.875 C 89.95865,11.3493 90,11.665279 90,12 l 0,2 0,68 0,2 c 0,3.324 -2.676,6 -6,6 l -72,0 z"
       inkscape:connector-curvature="0"
       id="path3615"
       style="opacity:0.6;fill:url(#radialGradient3619);fill-opacity:1;fill-rule:nonzero;stroke:none" />
    <rect
       width="84"
       height="84"
       rx="6"
       ry="6"
       x="6"
       y="106"
       id="rect2841"
       style="fill:url(#linearGradient2843);fill-opacity:1;fill-rule:nonzero;stroke:none" />
    <rect
       width="76"
       height="76"
       rx="4"
       ry="4"
       x="10"
       y="110"
       id="rect3634"
       style="fill:#ff0000;fill-opacity:1;fill-rule:nonzero;stroke:none" />
    <path
       d="m 14,9 c -2.752703,0 -5,2.247297 -5,5 l 0,68 c 0,2.752703 2.247297,5 5,5 l 68,0 c 2.752703,0 5,-2.247297 5,-5 L 87,14 C 87,11.247297 84.752703,9 82,9 L 14,9 z m 0,2 68,0 c 1.679297,0 3,1.320703 3,3 l 0,68 c 0,1.679297 -1.320703,3 -3,3 l -68,0 c -1.679297,0 -3,-1.320703 -3,-3 l 0,-68 c 0,-1.679297 1.320703,-3 3,-3 z"
       inkscape:connector-curvature="0"
       transform="translate(-110,0)"
       clip-path="url(#clipPath3649)"
       id="rect3647"
       style="font-size:medium;font-style:normal;font-variant:normal;font-weight:normal;font-stretch:normal;text-indent:0;text-align:start;text-decoration:none;line-height:normal;letter-spacing:normal;word-spacing:normal;text-transform:none;direction:ltr;block-progression:tb;writing-mode:lr-tb;text-anchor:start;color:#000000;fill:#000000;fill-opacity:1;stroke:none;stroke-width:2;marker:none;visibility:visible;display:inline;overflow:visible;filter:url(#filter3657);enable-background:accumulate;font-family:Abandoned Bitplane;-inkscape-font-specification:Abandoned Bitplane" />
    <path
       d="m 14.089286,10 c -2.216,0 -4,1.784 -4,4 l 0,68 c 0,2.216 1.784,4 4,4 l 68,0 c 2.216,0 4,-1.784 4,-4 l 0,-68 c 0,-2.216 -1.784,-4 -4,-4 l -68,0 z m 0,2 68,0 c 1.140301,0 2,0.859699 2,2 l 0,68 c 0,1.140301 -0.859699,2 -2,2 l -68,0 c -1.140301,0 -2,-0.859699 -2,-2 l 0,-68 c 0,-1.140301 0.859699,-2 2,-2 z"
       inkscape:connector-curvature="0"
       id="path3709"
       style="opacity:0.16000001;fill:#000000;fill-opacity:1;fill-rule:nonzero;stroke:none" />
    <path
       d="m 14,10 c -2.216,0 -4,1.784 -4,4 l 0,68 c 0,2.216 1.784,4 4,4 l 68,0 c 2.216,0 4,-1.784 4,-4 l 0,-68 c 0,-2.216 -1.784,-4 -4,-4 l -68,0 z m 0,1 68,0 c 1.673848,0 3,1.326152 3,3 l 0,68 c 0,1.673848 -1.326152,3 -3,3 l -68,0 c -1.673848,0 -3,-1.326152 -3,-3 l 0,-68 c 0,-1.673848 1.326152,-3 3,-3 z"
       inkscape:connector-curvature="0"
       id="path3707"
       style="opacity:0.36000001;fill:#000000;fill-opacity:1;fill-rule:nonzero;stroke:none" />
  </g>
  <g
     id="layer5"
     style="display:none">
    <rect
       width="66"
       height="66"
       rx="12"
       ry="12"
       x="15"
       y="15"
       clip-path="url(#clipPath3613)"
       id="rect3171"
       style="opacity:0.1;fill:url(#linearGradient3613);fill-opacity:1;fill-rule:nonzero;stroke:#ffffff;stroke-width:0.5;stroke-linecap:round;stroke-linejoin:miter;stroke-miterlimit:4;stroke-opacity:1;stroke-dasharray:none;stroke-dashoffset:0;filter:url(#filter3794)" />
  </g>
  <path
     d="m 46.886812,5.6309656 a 1.5294349,1.5294349 0 0 1 0.662844,0.2367292 L 70.417766,21.49187 a 1.5294349,1.5294349 0 0 1 0.04734,2.509337 L 47.597002,40.193532 a 1.5294349,1.5294349 0 0 1 -2.414645,-1.230994 v -8.332894 c -9.062569,2.46393 -16.024308,9.973919 -16.997207,19.553891 -0.0628,0.618275 0,1.463286 0,2.414645 0,12.770575 10.245964,23.031644 23.010147,23.057493 0.01688,-3.41e-4 0.03051,3.68e-4 0.04734,0 9.196939,-0.201137 15.015894,-4.551352 20.216735,-11.599765 a 1.5294349,1.5294349 0 0 1 1.988531,-0.426115 l 9.942657,5.823557 a 1.5294349,1.5294349 0 0 1 0.568152,2.083223 c -6.925699,12.164659 -17.393807,18.93839 -32.716075,18.93839 -20.908504,0 -37.876784,-16.968278 -37.876784,-37.876783 0,-18.829109 13.797759,-34.383998 31.816498,-37.308633 V 7.1460365 A 1.5294349,1.5294349 0 0 1 46.886808,5.6309656 Z M 51.242643,41.99268 c 5.846989,0 10.6055,4.75851 10.6055,10.6055 0,5.84699 -4.758511,10.6055 -10.6055,10.6055 -5.846989,0 -10.6055,-4.75851 -10.6055,-10.6055 0,-5.84699 4.758511,-10.6055 10.6055,-10.6055 z"
     id="path3892"
     style="display:inline;opacity:0.15;fill:#000000;fill-opacity:1;stroke:none;stroke-width:1" />
  <path
     d="M 46.678112,7.1460365 69.546222,22.770211 46.678112,38.962538 V 28.451728 C 36.028538,30.408181 27.75958,39.12316 26.65076,50.041497 c -0.08413,0.828316 0,1.706173 0,2.556683 0,13.608166 10.964399,24.572565 24.572565,24.572565 9.710978,-0.19608 16.082754,-4.944406 21.44773,-12.215263 l 9.942656,5.823556 c -6.727329,11.816229 -16.504011,18.18086 -31.390386,18.18086 -20.08202,0 -36.361714,-16.279698 -36.361714,-36.361718 0,-18.536692 13.888162,-33.833162 31.816501,-36.077638 z m 4.545213,36.3617155 c 5.020503,0 9.090429,4.069925 9.090429,9.090428 0,5.020502 -4.069926,9.090429 -9.090429,9.090429 -5.020502,0 -9.090428,-4.069927 -9.090428,-9.090429 0,-5.020503 4.069926,-9.090428 9.090428,-9.090428 z"
     inkscape:connector-curvature="0"
     id="path3886"
     style="display:inline;opacity:0.3;fill:#000000;fill-opacity:1;stroke:none;stroke-width:1" />
  <path
     d="M 46.678112,5.6309656 69.546222,21.25514 46.678112,37.447466 V 26.936657 C 36.028538,28.893109 27.75958,37.60809 26.65076,48.526426 c -0.08413,0.828315 0,1.706173 0,2.556683 0,13.608167 10.964399,24.572564 24.572565,24.572564 9.710978,-0.196081 16.082754,-4.944407 21.44773,-12.215263 l 9.942656,5.823556 C 75.886382,81.080196 66.1097,87.444824 51.223325,87.444824 c -20.08202,0 -36.361714,-16.279695 -36.361714,-36.361715 0,-18.536693 13.888162,-33.833162 31.816501,-36.077638 z M 51.223325,41.99268 c 5.020503,0 9.090429,4.069927 9.090429,9.090429 0,5.020503 -4.069926,9.090428 -9.090429,9.090428 -5.020502,0 -9.090428,-4.069925 -9.090428,-9.090428 0,-5.020502 4.069926,-9.090429 9.090428,-9.090429 z"
     inkscape:connector-curvature="0"
     id="path2856"
     style="display:inline;fill:#005c94;fill-opacity:1;stroke:none;stroke-width:1" />
  <path
     d="M 46.697429,5.6309656 69.565538,21.25514 68.476579,22.012675 46.697429,7.1460365 Z m 0,9.3745054 v 1.515071 c -17.368077,2.174337 -30.984931,16.621229 -31.8165,34.373182 0.09599,-18.449788 13.950412,-33.65157 31.8165,-35.888253 z m 4.545214,26.987209 c 5.020502,0 9.090429,4.069927 9.090429,9.090429 0,0.188581 -0.03603,0.382417 -0.04734,0.568152 -0.465521,-4.583903 -4.336361,-8.143509 -9.043082,-8.143509 -4.706722,0 -8.577562,3.559606 -9.043084,8.143509 -0.01136,-0.185735 -0.04734,-0.379571 -0.04734,-0.568152 0,-5.020502 4.069925,-9.090429 9.090427,-9.090429 z m -24.572565,8.569622 c 0.0047,0.174631 0,0.347792 0,0.520807 0,13.608167 10.964398,24.572564 24.572565,24.572564 9.710977,-0.196081 16.082752,-4.944407 21.44773,-12.215263 l 9.942656,5.823556 c -0.21779,0.382534 -0.48594,0.717881 -0.71019,1.088958 l -9.232466,-5.397442 c -5.364978,7.270857 -11.736753,12.019183 -21.44773,12.215263 -13.608167,0 -24.572565,-10.964399 -24.572565,-24.572565 0,-0.677495 -0.0208,-1.362541 0,-2.035878 z"
     inkscape:connector-curvature="0"
     id="path3868"
     style="display:inline;opacity:0.75;fill:#ffffff;fill-opacity:1;stroke:none;stroke-width:1" />
  <path
     d="m 68.476579,20.497605 1.088959,0.757535 -22.868109,16.192326 v -1.515071 z m -21.77915,4.923981 v 1.515071 C 36.047854,28.893109 27.778896,37.60809 26.670078,48.526426 c -0.01711,0.168499 0.0053,0.348852 0,0.520806 -0.01895,-0.683823 -0.067,-1.376062 0,-2.035877 1.108818,-10.918337 9.377776,-19.633317 20.027351,-21.589769 z m -31.8165,24.146451 c 0,20.082021 16.279693,36.361712 36.361714,36.361712 14.404446,0 23.97752,-6.000676 30.680196,-17.091898 l 0.71019,0.426115 c -6.72733,11.81623 -16.504013,18.180858 -31.390386,18.180858 -20.082021,0 -36.361714,-16.279695 -36.361714,-36.361715 0,-0.514908 -0.02122,-1.005375 0,-1.515072 z m 45.404797,0.94692 c 0.01136,0.185734 0.04734,0.379569 0.04734,0.568152 0,5.020503 -4.069925,9.090428 -9.090428,9.090428 -5.020501,0 -9.090427,-4.069925 -9.090427,-9.090428 0,-0.188583 0.03603,-0.382418 0.04734,-0.568152 0.465522,4.583901 4.336362,8.14351 9.043083,8.14351 4.706722,0 8.577562,-3.559609 9.043083,-8.14351 z"
     inkscape:connector-curvature="0"
     id="path3877"
     style="display:inline;opacity:0.15;fill:#000000;fill-opacity:1;stroke:none;stroke-width:1" />
</svg>
