<?xml version="1.0" encoding="UTF-8" standalone="no"?>
<!-- Created with Inkscape (http://www.inkscape.org/) -->

<svg
   version="1.2"
   width="96"
   height="96"
   id="svg2408"
   style="display:inline"
   sodipodi:docname="em400.svg"
   inkscape:version="1.1 (c68e22c387, 2021-05-23)"
   xmlns:inkscape="http://www.inkscape.org/namespaces/inkscape"
   xmlns:sodipodi="http://sodipodi.sourceforge.net/DTD/sodipodi-0.dtd"
   xmlns:xlink="http://www.w3.org/1999/xlink"
   xmlns="http://www.w3.org/2000/svg"
   xmlns:svg="http://www.w3.org/2000/svg"
   xmlns:rdf="http://www.w3.org/1999/02/22-rdf-syntax-ns#"
   xmlns:cc="http://creativecommons.org/ns#"
   xmlns:dc="http://purl.org/dc/elements/1.1/">
  <sodipodi:namedview
     id="namedview4242"
     pagecolor="#ffffff"
     bordercolor="#999999"
     borderopacity="1"
     inkscape:pageshadow="0"
     inkscape:pageopacity="0"
     inkscape:pagecheckerboard="0"
     showgrid="false"
     inkscape:zoom="5.5684659"
     inkscape:cx="26.578236"
     inkscape:cy="54.593133"
     inkscape:window-width="1920"
     inkscape:window-height="1013"
     inkscape:window-x="0"
     inkscape:window-y="0"
     inkscape:window-maximized="1"
     inkscape:current-layer="svg2408"
     showguides="true"
     inkscape:guide-bbox="true">
    <sodipodi:guide
       position="47.873016,67.68254"
       orientation="1,0"
       id="guide30865" />
  </sodipodi:namedview>
  <defs
     id="defs2410">
    <linearGradient
       id="linearGradient3789">
      <stop
         id="stop3791"
         style="stop-color:#949494;stop-opacity:1"
         offset="0" />
      <stop
         id="stop3793"
         style="stop-color:#b3b3b3;stop-opacity:1"
         offset="1" />
    </linearGradient>
    <linearGradient
       x1="45.447727"
       y1="92.539597"
       x2="45.447727"
       y2="7.0165396"
       id="ButtonShadow"
       gradientUnits="userSpaceOnUse"
       gradientTransform="scale(1.0058652,0.994169)">
      <stop
         id="stop3750"
         style="stop-color:#000000;stop-opacity:1"
         offset="0" />
      <stop
         id="stop3752"
         style="stop-color:#000000;stop-opacity:0.58823532"
         offset="1" />
    </linearGradient>
    <linearGradient
       id="linearGradient3700">
      <stop
         id="stop3702"
         style="stop-color:#e6e6e6;stop-opacity:1"
         offset="0" />
      <stop
         id="stop3704"
         style="stop-color:#f5f5f5;stop-opacity:1"
         offset="1" />
    </linearGradient>
    <linearGradient
       x1="48"
       y1="90"
       x2="48"
       y2="5.9877172"
       id="linearGradient3706"
       xlink:href="#linearGradient3700"
       gradientUnits="userSpaceOnUse" />
    <filter
       color-interpolation-filters="sRGB"
       id="filter3174"
       x="-0.047720931"
       y="-0.048282354"
       width="1.0954419"
       height="1.0965647">
      <feGaussianBlur
         id="feGaussianBlur3176"
         stdDeviation="1.71" />
    </filter>
    <linearGradient
       x1="45.447727"
       y1="92.539597"
       x2="45.447727"
       y2="7.0165396"
       id="ButtonShadow-0"
       gradientUnits="userSpaceOnUse"
       gradientTransform="matrix(1.0058652,0,0,0.994169,100,0)">
      <stop
         id="stop3750-8"
         style="stop-color:#000000;stop-opacity:1"
         offset="0" />
      <stop
         id="stop3752-5"
         style="stop-color:#000000;stop-opacity:0.58823532"
         offset="1" />
    </linearGradient>
    <linearGradient
       x1="32.251034"
       y1="6.1317081"
       x2="32.251034"
       y2="90.238609"
       id="linearGradient3780"
       xlink:href="#ButtonShadow-0"
       gradientUnits="userSpaceOnUse"
       gradientTransform="matrix(1.0238095,0,0,1.0119048,-1.1428571,-98.071429)" />
    <linearGradient
       x1="32.251034"
       y1="6.1317081"
       x2="32.251034"
       y2="90.238609"
       id="linearGradient3772"
       xlink:href="#ButtonShadow-0"
       gradientUnits="userSpaceOnUse"
       gradientTransform="matrix(1.0238095,0,0,1.0119048,-1.1428571,-98.071429)" />
    <linearGradient
       x1="32.251034"
       y1="6.1317081"
       x2="32.251034"
       y2="90.238609"
       id="linearGradient3725"
       xlink:href="#ButtonShadow-0"
       gradientUnits="userSpaceOnUse"
       gradientTransform="matrix(1.0238095,0,0,1.0119048,-1.1428571,-98.071429)" />
    <linearGradient
       x1="32.251034"
       y1="6.1317081"
       x2="32.251034"
       y2="90.238609"
       id="linearGradient3721"
       xlink:href="#ButtonShadow-0"
       gradientUnits="userSpaceOnUse"
       gradientTransform="translate(0,-97)" />
    <linearGradient
       x1="32.251034"
       y1="6.1317081"
       x2="32.251034"
       y2="90.238609"
       id="linearGradient3760"
       xlink:href="#ButtonShadow-0"
       gradientUnits="userSpaceOnUse"
       gradientTransform="matrix(1.0238095,0,0,1.0119048,-1.1428571,-98.071429)" />
    <radialGradient
       cx="48"
       cy="90.171875"
       r="42"
       fx="48"
       fy="90.171875"
       id="radialGradient2886"
       xlink:href="#linearGradient3737-0"
       gradientUnits="userSpaceOnUse"
       gradientTransform="matrix(1.1573129,0,0,0.99590774,-7.551021,0.1971319)" />
    <linearGradient
       id="linearGradient3737-0">
      <stop
         id="stop3739-6"
         style="stop-color:#ffffff;stop-opacity:1"
         offset="0" />
      <stop
         id="stop3741-0"
         style="stop-color:#ffffff;stop-opacity:0"
         offset="1" />
    </linearGradient>
    <linearGradient
       id="linearGradient3737-1">
      <stop
         id="stop3739-9-8"
         style="stop-color:#ffffff;stop-opacity:1"
         offset="0" />
      <stop
         id="stop3741-3"
         style="stop-color:#ffffff;stop-opacity:0"
         offset="1" />
    </linearGradient>
    <linearGradient
       x1="36.357143"
       y1="6"
       x2="36.357143"
       y2="63.893143"
       id="linearGradient3680"
       xlink:href="#linearGradient3737-1"
       gradientUnits="userSpaceOnUse" />
    <clipPath
       id="clipPath3776">
      <path
         d="m -88,6 c -3.324,0 -6,2.676 -6,6 l 0,72 c 0,3.324 2.676,6 6,6 l 72,0 c 3.324,0 6,-2.676 6,-6 l 0,-72 c 0,-3.324 -2.676,-6 -6,-6 l -72,0 z m 14.78125,18 4.40625,0 c 0.944132,1.3e-5 1.646705,0.342872 2.15625,1.09375 0.404619,0.605567 0.656238,1.330757 0.65625,2.09375 l 0,5.6875 c -1.2e-5,0.763003 -0.25163,1.449916 -0.65625,2.03125 C -67.165796,35.645027 -67.868369,36 -68.8125,36 l -4.40625,0 c -0.929155,0 -1.677969,-0.35497 -2.1875,-1.09375 C -75.810883,34.324914 -76,33.638004 -76,32.875 l 0,-5.6875 c 10e-7,-0.762992 0.189117,-1.488183 0.59375,-2.09375 0.509531,-0.750878 1.258345,-1.093738 2.1875,-1.09375 z m 11.25,0 4.09375,0 0,11 3.875,0 0,1 -10,0 0,-1 3.875,0 0,-10 -1.84375,0 0,-1 z m 12.75,0 4.40625,0 c 0.944132,1.3e-5 1.646705,0.342872 2.15625,1.09375 0.404619,0.605567 0.656238,1.330757 0.65625,2.09375 l 0,5.6875 c -1.2e-5,0.763003 -0.25163,1.449916 -0.65625,2.03125 C -43.165796,35.645027 -43.868369,36 -44.8125,36 l -4.40625,0 c -0.929155,0 -1.677969,-0.35497 -2.1875,-1.09375 C -51.810883,34.324914 -52,33.638004 -52,32.875 l 0,-5.6875 c 10e-7,-0.762992 0.189117,-1.488183 0.59375,-2.09375 0.509531,-0.750878 1.258345,-1.093738 2.1875,-1.09375 z m 12,0 4.40625,0 c 0.944132,1.3e-5 1.646705,0.342872 2.15625,1.09375 0.404619,0.605567 0.656238,1.330757 0.65625,2.09375 l 0,5.6875 c -1.2e-5,0.763003 -0.25163,1.449916 -0.65625,2.03125 C -31.165796,35.645027 -31.868369,36 -32.8125,36 l -4.40625,0 c -0.929155,0 -1.677969,-0.35497 -2.1875,-1.09375 C -39.810883,34.324914 -40,33.638004 -40,32.875 l 0,-5.6875 c 10e-7,-0.762992 0.189117,-1.488183 0.59375,-2.09375 0.509531,-0.750878 1.258345,-1.093738 2.1875,-1.09375 z m -34.875,1 c -0.614442,1.2e-5 -1.107805,0.260482 -1.4375,0.78125 -0.254769,0.411788 -0.406252,0.897591 -0.40625,1.40625 l 0,5.6875 c -2e-6,0.363335 0.100134,0.704251 0.25,1.03125 l 4.53125,-8.78125 c -0.209815,-0.08476 -0.432739,-0.124989 -0.6875,-0.125 l -2.25,0 z m 24,0 c -0.614442,1.2e-5 -1.107805,0.260482 -1.4375,0.78125 -0.254769,0.411788 -0.406252,0.897591 -0.40625,1.40625 l 0,5.6875 c -2e-6,0.363335 0.100134,0.704251 0.25,1.03125 l 4.53125,-8.78125 c -0.209815,-0.08476 -0.432739,-0.124989 -0.6875,-0.125 l -2.25,0 z m 12,0 c -0.614442,1.2e-5 -1.107805,0.260482 -1.4375,0.78125 -0.254769,0.411788 -0.406252,0.897591 -0.40625,1.40625 l 0,5.6875 c -2e-6,0.363335 0.100134,0.704251 0.25,1.03125 l 4.53125,-8.78125 c -0.209815,-0.08476 -0.432739,-0.124989 -0.6875,-0.125 l -2.25,0 z m -32.15625,1.15625 -4.5,8.75 c 0.194818,0.07266 0.43145,0.125001 0.65625,0.125 l 2.25,0 c 0.614432,2e-6 1.06028,-0.260469 1.375,-0.78125 0.254761,-0.399664 0.406243,-0.878441 0.40625,-1.375 l 0,-5.6875 c -7e-6,-0.351212 -0.05263,-0.692128 -0.1875,-1.03125 z m 24,0 -4.5,8.75 c 0.194818,0.07266 0.43145,0.125001 0.65625,0.125 l 2.25,0 c 0.614432,2e-6 1.06028,-0.260469 1.375,-0.78125 0.254761,-0.399664 0.406243,-0.878441 0.40625,-1.375 l 0,-5.6875 c -7e-6,-0.351212 -0.05263,-0.692128 -0.1875,-1.03125 z m 12,0 -4.5,8.75 c 0.194818,0.07266 0.43145,0.125001 0.65625,0.125 l 2.25,0 c 0.614432,2e-6 1.06028,-0.260469 1.375,-0.78125 0.254761,-0.399664 0.406243,-0.878441 0.40625,-1.375 l 0,-5.6875 c -7e-6,-0.351212 -0.05263,-0.692128 -0.1875,-1.03125 z M -73.96875,42 l 4.09375,0 0,11 3.875,0 0,1 -10,0 0,-1 3.875,0 0,-10 -1.84375,0 0,-1 z m 12,0 4.09375,0 0,11 3.875,0 0,1 -10,0 0,-1 3.875,0 0,-10 -1.84375,0 0,-1 z m 12.75,0 4.40625,0 c 0.944132,1.3e-5 1.646705,0.342872 2.15625,1.09375 0.404619,0.605567 0.656238,1.330757 0.65625,2.09375 l 0,5.6875 c -1.2e-5,0.763003 -0.25163,1.449916 -0.65625,2.03125 C -43.165796,53.645027 -43.868369,54 -44.8125,54 l -4.40625,0 c -0.929155,0 -1.677969,-0.35497 -2.1875,-1.09375 C -51.810883,52.324914 -52,51.638004 -52,50.875 l 0,-5.6875 c 10e-7,-0.762992 0.189117,-1.488183 0.59375,-2.09375 0.509531,-0.750878 1.258345,-1.093738 2.1875,-1.09375 z m 11.25,0 4.09375,0 0,11 3.875,0 0,1 -10,0 0,-1 3.875,0 0,-10 -1.84375,0 0,-1 z m -10.125,1 c -0.614442,1.2e-5 -1.107805,0.260482 -1.4375,0.78125 -0.254769,0.411788 -0.406252,0.897591 -0.40625,1.40625 l 0,5.6875 c -2e-6,0.363335 0.100134,0.704251 0.25,1.03125 l 4.53125,-8.78125 c -0.209815,-0.08476 -0.432739,-0.124989 -0.6875,-0.125 l -2.25,0 z m 3.84375,1.15625 -4.5,8.75 c 0.194818,0.07266 0.43145,0.125001 0.65625,0.125 l 2.25,0 c 0.614432,2e-6 1.06028,-0.260469 1.375,-0.78125 0.254761,-0.399664 0.406243,-0.878441 0.40625,-1.375 l 0,-5.6875 c -7e-6,-0.351212 -0.05263,-0.692128 -0.1875,-1.03125 z M -73.96875,60 l 4.09375,0 0,11 3.875,0 0,1 -10,0 0,-1 3.875,0 0,-10 -1.84375,0 0,-1 z m 12.75,0 4.40625,0 c 0.944132,1.3e-5 1.646705,0.342872 2.15625,1.09375 0.404619,0.605567 0.656238,1.330757 0.65625,2.09375 l 0,5.6875 c -1.2e-5,0.763003 -0.25163,1.449916 -0.65625,2.03125 C -55.165796,71.645027 -55.868369,72 -56.8125,72 l -4.40625,0 c -0.929155,0 -1.677969,-0.35497 -2.1875,-1.09375 C -63.810883,70.324914 -64,69.638004 -64,68.875 l 0,-5.6875 c 10e-7,-0.762992 0.189117,-1.488183 0.59375,-2.09375 0.509531,-0.750878 1.258345,-1.093738 2.1875,-1.09375 z m 12,0 4.40625,0 c 0.944132,1.3e-5 1.646705,0.342872 2.15625,1.09375 0.404619,0.605567 0.656238,1.330757 0.65625,2.09375 l 0,5.6875 c -1.2e-5,0.763003 -0.25163,1.449916 -0.65625,2.03125 C -43.165796,71.645027 -43.868369,72 -44.8125,72 l -4.40625,0 c -0.929155,0 -1.677969,-0.35497 -2.1875,-1.09375 C -51.810883,70.324914 -52,69.638004 -52,68.875 l 0,-5.6875 c 10e-7,-0.762992 0.189117,-1.488183 0.59375,-2.09375 0.509531,-0.750878 1.258345,-1.093738 2.1875,-1.09375 z m 11.25,0 4.09375,0 0,11 3.875,0 0,1 -10,0 0,-1 3.875,0 0,-10 -1.84375,0 0,-1 z m -22.125,1 c -0.614442,1.2e-5 -1.107805,0.260482 -1.4375,0.78125 -0.254769,0.411788 -0.406252,0.897591 -0.40625,1.40625 l 0,5.6875 c -2e-6,0.363335 0.100134,0.704251 0.25,1.03125 l 4.53125,-8.78125 c -0.209815,-0.08476 -0.432739,-0.124989 -0.6875,-0.125 l -2.25,0 z m 12,0 c -0.614442,1.2e-5 -1.107805,0.260482 -1.4375,0.78125 -0.254769,0.411788 -0.406252,0.897591 -0.40625,1.40625 l 0,5.6875 c -2e-6,0.363335 0.100134,0.704251 0.25,1.03125 l 4.53125,-8.78125 c -0.209815,-0.08476 -0.432739,-0.124989 -0.6875,-0.125 l -2.25,0 z m -8.15625,1.15625 -4.5,8.75 c 0.194818,0.07266 0.43145,0.125001 0.65625,0.125 l 2.25,0 c 0.614432,2e-6 1.06028,-0.260469 1.375,-0.78125 0.254761,-0.399664 0.406243,-0.878441 0.40625,-1.375 l 0,-5.6875 c -7e-6,-0.351212 -0.05263,-0.692128 -0.1875,-1.03125 z m 12,0 -4.5,8.75 c 0.194818,0.07266 0.43145,0.125001 0.65625,0.125 l 2.25,0 c 0.614432,2e-6 1.06028,-0.260469 1.375,-0.78125 0.254761,-0.399664 0.406243,-0.878441 0.40625,-1.375 l 0,-5.6875 c -7e-6,-0.351212 -0.05263,-0.692128 -0.1875,-1.03125 z"
         inkscape:connector-curvature="0"
         id="path3779"
         style="fill:#ff00ff;fill-opacity:1;fill-rule:nonzero;stroke:none" />
    </clipPath>
    <filter
       x="-0.16886956"
       y="-0.16183333"
       width="1.3377391"
       height="1.3236667"
       color-interpolation-filters="sRGB"
       id="filter3785">
      <feGaussianBlur
         id="feGaussianBlur3787"
         stdDeviation="2.82" />
    </filter>
    <linearGradient
       x1="42"
       y1="72"
       x2="42"
       y2="24"
       id="linearGradient3795"
       xlink:href="#linearGradient3789"
       gradientUnits="userSpaceOnUse" />
    <linearGradient
       id="linearGradient3737-9">
      <stop
         id="stop3739-2"
         style="stop-color:#ffffff;stop-opacity:1"
         offset="0" />
      <stop
         id="stop3741-1"
         style="stop-color:#ffffff;stop-opacity:0"
         offset="1" />
    </linearGradient>
    <clipPath
       id="clipPath3613">
      <rect
         width="84"
         height="84"
         rx="6"
         ry="6"
         x="6"
         y="6"
         id="rect3615"
         style="fill:#ffffff;fill-opacity:1;fill-rule:nonzero;stroke:none" />
    </clipPath>
    <filter
       x="-0.19578789"
       y="-0.19578789"
       width="1.3915758"
       height="1.3915758"
       color-interpolation-filters="sRGB"
       id="filter3794">
      <feGaussianBlur
         id="feGaussianBlur3796"
         stdDeviation="5.28" />
    </filter>
    <linearGradient
       x1="48"
       y1="20.220806"
       x2="48"
       y2="138.66119"
       id="linearGradient4209"
       xlink:href="#linearGradient3737-9"
       gradientUnits="userSpaceOnUse" />
  </defs>
  <metadata
     id="metadata2413">
    <rdf:RDF>
      <cc:Work
         rdf:about="">
        <dc:format>image/svg+xml</dc:format>
        <dc:type
           rdf:resource="http://purl.org/dc/dcmitype/StillImage" />
      </cc:Work>
    </rdf:RDF>
  </metadata>
  <text
     xml:space="preserve"
     style="font-style:normal;font-variant:normal;font-weight:bold;font-stretch:normal;font-size:92.5799px;line-height:125%;font-family:Roboto;-inkscape-font-specification:'Roboto Bold';letter-spacing:0px;word-spacing:0px;display:inline;fill:#0e232e;fill-opacity:1;stroke:none;stroke-width:1px;stroke-linecap:butt;stroke-linejoin:miter;stroke-opacity:1"
     x="11.525843"
     y="74.687439"
     id="text2021-4"
     transform="scale(0.90913629,1.0999451)"><tspan
       sodipodi:role="line"
       id="tspan2019-8"
       x="11.525843"
       y="74.687439"
       style="font-style:normal;font-variant:normal;font-weight:bold;font-stretch:normal;font-family:'Microgramma D OT';-inkscape-font-specification:'Microgramma D OT Bold';fill:#0e232e;stroke-width:1px">4</tspan></text>
  <g
     id="layer2"
     style="display:none">
    <rect
       width="86"
       height="85"
       rx="6"
       ry="6"
       x="5"
       y="7"
       id="rect3745"
       style="opacity:0.9;fill:url(#ButtonShadow);fill-opacity:1;fill-rule:nonzero;stroke:none;filter:url(#filter3174)" />
  </g>
  <text
     xml:space="preserve"
     style="font-style:normal;font-variant:normal;font-weight:bold;font-stretch:normal;font-size:92.5799px;line-height:125%;font-family:Roboto;-inkscape-font-specification:'Roboto Bold';letter-spacing:0px;word-spacing:0px;fill:#005c94;fill-opacity:1;stroke:none;stroke-width:1px;stroke-linecap:butt;stroke-linejoin:miter;stroke-opacity:1"
     x="9.2249918"
     y="72.58989"
     id="text2021"
     transform="scale(0.90913629,1.0999451)"><tspan
       sodipodi:role="line"
       id="tspan2019"
       x="9.2249918"
       y="72.58989"
       style="font-style:normal;font-variant:normal;font-weight:bold;font-stretch:normal;font-family:'Microgramma D OT';-inkscape-font-specification:'Microgramma D OT Bold';fill:#005c94;stroke-width:1px">4</tspan></text>
</svg>
