<?xml version="1.0" encoding="UTF-8" standalone="no"?>
<!-- Generator: Adobe Illustrator 9.0, SVG Export Plug-In  -->

<svg
   width="48.000000px"
   height="48.000000px"
   viewBox="0 0 48 48"
   xml:space="preserve"
   id="svg2"
   sodipodi:version="0.32"
   inkscape:version="1.1 (c68e22c387, 2021-05-23)"
   sodipodi:docname="open.svg"
   version="1.1"
   xmlns:inkscape="http://www.inkscape.org/namespaces/inkscape"
   xmlns:sodipodi="http://sodipodi.sourceforge.net/DTD/sodipodi-0.dtd"
   xmlns="http://www.w3.org/2000/svg"
   xmlns:svg="http://www.w3.org/2000/svg"
   xmlns:rdf="http://www.w3.org/1999/02/22-rdf-syntax-ns#"
   xmlns:cc="http://creativecommons.org/ns#"
   xmlns:dc="http://purl.org/dc/elements/1.1/"><metadata
   id="metadata19"><rdf:RDF><cc:Work
       rdf:about=""><dc:format>image/svg+xml</dc:format><dc:type
         rdf:resource="http://purl.org/dc/dcmitype/StillImage" /></cc:Work></rdf:RDF></metadata><defs
   id="defs17">
		
	
			
			
			
		</defs><sodipodi:namedview
   inkscape:window-height="1013"
   inkscape:window-width="1920"
   inkscape:pageshadow="2"
   inkscape:pageopacity="0.0"
   borderopacity="1.0"
   bordercolor="#666666"
   pagecolor="#ffffff"
   id="base"
   inkscape:grid-bbox="true"
   showgrid="true"
   inkscape:grid-points="true"
   inkscape:zoom="11.166395"
   inkscape:cx="20.418408"
   inkscape:cy="31.523156"
   inkscape:window-x="0"
   inkscape:window-y="0"
   inkscape:current-layer="svg2"
   inkscape:pagecheckerboard="0"
   inkscape:window-maximized="1" />
	<rect
   style="fill:none;fill-opacity:0.442197;fill-rule:evenodd;stroke:none;stroke-width:1px;stroke-linecap:butt;stroke-linejoin:miter;stroke-opacity:1"
   id="rect3315"
   width="48.126648"
   height="48.189972"
   x="0.53839654"
   y="0.50014567" /><path
   style="fill:#0e232e;fill-opacity:1;fill-rule:nonzero;stroke:none;stroke-miterlimit:4"
   d="m 6.6017211,9.5634702 c -1,0 -2,0.9999998 -2,1.9999998 v 25 c 0,2 1,3 3,3 H 35.601721 c 2,0 3,-2 3,-2 l 6,-15 c 0.584012,-1.460029 0,-5 -3,-5 h -5 c 0,-0.8 0,-1 0,-1 0,-2 -1,-3 -3,-3 h -13 v -2 c 0,-1 -1,-1.9999998 -2,-1.9999998 z"
   id="path9"
   sodipodi:nodetypes="ccccccscccccccc" /><path
   style="fill:#bdcdd4;fill-rule:nonzero;stroke:none;stroke-miterlimit:4"
   d="m 9.6017211,35.56347 23.9999999,0.1 c 0.6,0 1.2,-0.4 1.5,-0.9 0.7,-1 4.8,-10.6 4.8,-12.5 0,-0.4 0,-0.7 -1.3,-0.7 h -23 c -0.4,0 -0.9,0.3 -1,0.9 -0.1,1.5 -2.9,11.238786 -4,12.538786 -0.3,0.4 -0.9999999,0.561214 -0.9999999,0.561214 z"
   id="path11"
   sodipodi:nodetypes="cccscccccc" />
	
</svg>
